{
  "accessors": [
    {
      "bufferView": 3,
      "componentType": 5126,
      "count": 1824,
      "max": [
        46.341487884521484,
        40.804603576660156,
        14.524361610412598
      ],
      "min": [
        1.7360830307006836,
        19.892070770263672,
        -20.486709594726563
      ],
      "type": "VEC3"
    },
    {
      "bufferView": 3,
      "byteOffset": 21888,
      "componentType": 5126,
      "count": 1824,
      "max": [
        0.9993240237236023,
        0.9987748861312866,
        0.9980862140655518
      ],
      "min": [
        -0.9993476271629333,
        -0.9999820590019226,
        -0.9932435750961304
      ],
      "type": "VEC3"
    },
    {
      "bufferView": 2,
      "componentType": 5126,
      "count": 1824,
      "max": [
        0.9952621459960938,
        1.0001389980316162
      ],
      "min": [
        0.009308874607086182,
        0.016963481903076172
      ],
      "type": "VEC2"
    },
    {
      "bufferView": 1,
      "componentType": 5125,
      "count": 6402,
      "type": "SCALAR"
    },
    {
      "bufferView": 5,
      "componentType": 5126,
      "count": 3,
      "max": [
        1.0,
        0.0,
        0.0,
        0.0,
        0.0,
        1.0,
        0.0,
        0.0,
        0.0,
        0.0,
        1.0,
        0.0,
        0.0,
        0.0,
        0.0,
        1.0
      ],
      "min": [
        1.0,
        0.0,
        0.0,
        0.0,
        0.0,
        1.0,
        0.0,
        0.0,
        0.0,
        0.0,
        1.0,
        0.0,
        -24.014875411987305,
        -34.29784393310547,
        -9.475603103637695,
        1.0
      ],
      "type": "MAT4"
    },
    {
      "bufferView": 0,
      "componentType": 5123,
      "count": 1824,
      "type": "VEC4"
    },
    {
      "bufferView": 4,
      "componentType": 5126,
      "count": 1824,
      "max": [
        1.0,
        0.5,
        0.0,
        0.0
      ],
      "min": [
        0.5,
        0.0,
        0.0,
        0.0
      ],
      "type": "VEC4"
    },
    {
      "bufferView": 6,
      "componentType": 5126,
      "count": 75,
      "max": [
        2.5
      ],
      "min": [
        0.0416666679084301
      ],
      "type": "SCALAR"
    },
    {
      "bufferView": 7,
      "componentType": 5126,
      "count": 75,
      "max": [
        0.0,
        -4.02871036529541,
        8.923523902893066
      ],
      "min": [
        0.0,
        -6.944880485534668,
        3.688953161239624
      ],
      "type": "VEC3"
    },
    {
      "bufferView": 6,
      "byteOffset": 300,
      "componentType": 5126,
      "count": 75,
      "max": [
        2.5
      ],
      "min": [
        0.0416666679084301
      ],
      "type": "SCALAR"
    },
    {
      "bufferView": 7,
      "byteOffset": 900,
      "componentType": 5126,
      "count": 75,
      "max": [
        1.8369828462600708,
        1.6656275987625122,
        1.3385156393051147
      ],
      "min": [
        1.0,
        1.0,
        1.0
      ],
      "type": "VEC3"
    }
  ],
  "animations": [
    {
      "channels": [
        {
          "sampler": 0,
          "target": {
            "node": 9,
            "path": "translation"
          }
        },
        {
          "sampler": 1,
          "target": {
            "node": 9,
            "path": "scale"
          }
        }
      ],
      "name": "Take 001",
      "samplers": [
        {
          "input": 7,
          "interpolation": "LINEAR",
          "output": 8
        },
        {
          "input": 9,
          "interpolation": "LINEAR",
          "output": 10
        }
      ]
    }
  ],
  "asset": {
    "extras": {
      "author": "Norah van Nimwegen (https://sketchfab.com/NorahvanNimwegen)",
      "license": "CC-BY-4.0 (http://creativecommons.org/licenses/by/4.0/)",
      "source": "https://sketchfab.com/3d-models/frog-low-poly-animation-e162d0ecfe6e42f5a3afc4e0893bc560",
      "title": "Frog (Low-Poly) + Animation"
    },
    "generator": "Sketchfab-15.36.0",
    "version": "2.0"
  },
  "bufferViews": [
    {
      "buffer": 0,
      "byteLength": 14592,
      "byteStride": 8,
      "name": "shortBufferViews",
      "target": 34962
    },
    {
      "buffer": 0,
      "byteLength": 25608,
      "byteOffset": 14592,
      "name": "floatBufferViews",
      "target": 34963
    },
    {
      "buffer": 0,
      "byteLength": 14592,
      "byteOffset": 40200,
      "byteStride": 8,
      "name": "floatBufferViews",
      "target": 34962
    },
    {
      "buffer": 0,
      "byteLength": 43776,
      "byteOffset": 54792,
      "byteStride": 12,
      "name": "floatBufferViews",
      "target": 34962
    },
    {
      "buffer": 0,
      "byteLength": 29184,
      "byteOffset": 98568,
      "byteStride": 16,
      "name": "floatBufferViews",
      "target": 34962
    },
    {
      "buffer": 0,
      "byteLength": 192,
      "byteOffset": 127752,
      "name": "floatBufferViews"
    },
    {
      "buffer": 0,
      "byteLength": 600,
      "byteOffset": 127944,
      "name": "floatBufferViews"
    },
    {
      "buffer": 0,
      "byteLength": 1800,
      "byteOffset": 128544,
      "byteStride": 12,
      "name": "floatBufferViews"
    }
  ],
  "buffers": [
    {
      "byteLength": 130344,
      "uri": "scene.bin"
    }
  ],
  "images": [
    {
      "uri": "textures/Kwaker_baseColor.png"
    }
  ],
  "materials": [
    {
      "doubleSided": true,
      "name": "Kwaker",
      "pbrMetallicRoughness": {
        "baseColorTexture": {
          "index": 0
        },
        "metallicFactor": 0.0
      }
    }
  ],
  "meshes": [
    {
      "name": "pasted__KIKKER_Kwaker_0",
      "primitives": [
        {
          "attributes": {
            "JOINTS_0": 5,
            "NORMAL": 1,
            "POSITION": 0,
            "TEXCOORD_0": 2,
            "WEIGHTS_0": 6
          },
          "indices": 3,
          "material": 0,
          "mode": 4
        }
      ]
    }
  ],
  "nodes": [
    {
      "children": [
        1
      ],
      "matrix": [
        1.0,
        0.0,
        0.0,
        0.0,
        0.0,
        2.220446049250313e-16,
        -1.0,
        0.0,
        0.0,
        1.0,
        2.220446049250313e-16,
        0.0,
        0.0,
        0.0,
        0.0,
        1.0
      ],
      "name": "Sketchfab_model"
    },
    {
      "children": [
        2
      ],
      "matrix": [
        0.009999999776482582,
        0.0,
        0.0,
        0.0,
        0.0,
        0.0,
        0.009999999776482582,
        0.0,
        0.0,
        -0.009999999776482582,
        0.0,
        0.0,
        0.0,
        0.0,
        0.0,
        1.0
      ],
      "name": "48c44d0c87c14b22a5ea1d970ed8e60d.fbx"
    },
    {
      "children": [
        3
      ],
      "name": "Object_2"
    },
    {
      "children": [
        4
      ],
      "name": "RootNode"
    },
    {
      "children": [
        5,
        7,
        6,
        10
      ],
      "name": "Object_4"
    },
    {
      "children": [
        8
      ],
      "name": "_rootJoint"
    },
    {
      "matrix": [
        0.9999999999999999,
        0.0,
        0.0,
        0.0,
        0.0,
        1.0,
        0.0,
        0.0,
        0.0,
        0.0,
        0.9999999999999999,
        0.0,
        6.74629684738121,
        0.0,
        -8.881784197001252e-16,
        1.0
      ],
      "name": "Object_6"
    },
    {
      "mesh": 0,
      "name": "Object_7",
      "skin": 0
    },
    {
      "children": [
        9
      ],
      "name": "joint2_00",
      "translation": [
        24.014875411987305,
        34.29784393310547,
        5.243869304656982
      ]
    },
    {
      "name": "joint1_01",
      "scale": [
        1.5016937255859375,
        1.398982048034668,
        1.2029087543487549
      ],
      "translation": [
        0.0,
        -5.776684284210205,
        6.82659387588501
      ]
    },
    {
      "name": "pasted__KIKKER",
      "translation": [
        6.7462968826293945,
        0.0,
        0.0
      ]
    }
  ],
  "samplers": [
    {
      "magFilter": 9729,
      "minFilter": 9987,
      "wrapS": 10497,
      "wrapT": 10497
    }
  ],
  "scene": 0,
  "scenes": [
    {
      "name": "Sketchfab_Scene",
      "nodes": [
        0
      ]
    }
  ],
  "skins": [
    {
      "inverseBindMatrices": 4,
      "joints": [
        5,
        8,
        9
      ],
      "skeleton": 5
    }
  ],
  "textures": [
    {
      "sampler": 0,
      "source": 0
    }
  ]
}
